<svg xmlns="http://www.w3.org/2000/svg" viewBox="0 0 64 64" fill="none">
  <defs>
    <linearGradient id="brainGradient" x1="0%" y1="0%" x2="100%" y2="100%">
      <stop offset="0%" style="stop-color:#3b82f6;stop-opacity:1" />
      <stop offset="50%" style="stop-color:#2563eb;stop-opacity:1" />
      <stop offset="100%" style="stop-color:#1d4ed8;stop-opacity:1" />
    </linearGradient>
  </defs>

  <!-- Brain outline -->
  <path d="M32 8 C20 8 12 16 12 28 C12 32 13 35 15 38 L18 42 L20 48 L22 52 L26 56 L32 58 L38 56 L42 52 L44 48 L46 42 L49 38 C51 35 52 32 52 28 C52 16 44 8 32 8 Z" fill="url(#brainGradient)" stroke="#1e40af" stroke-width="1.5"/>

  <!-- Brain folds/details -->
  <path d="M20 24 Q25 22 30 24 T40 24" stroke="#1e40af" stroke-width="1.5" fill="none" opacity="0.8"/>
  <path d="M22 30 Q27 28 32 30 T42 30" stroke="#1e40af" stroke-width="1.5" fill="none" opacity="0.8"/>
  <path d="M24 36 Q29 34 34 36 T44 36" stroke="#1e40af" stroke-width="1.5" fill="none" opacity="0.8"/>

  <!-- Synaptic connections -->
  <circle cx="26" cy="20" r="2" fill="#60a5fa" opacity="0.9"/>
  <circle cx="38" cy="22" r="2" fill="#60a5fa" opacity="0.9"/>
  <circle cx="30" cy="32" r="2" fill="#60a5fa" opacity="0.9"/>
  <circle cx="36" cy="38" r="2" fill="#60a5fa" opacity="0.9"/>

  <!-- Connection lines -->
  <line x1="26" y1="20" x2="30" y2="32" stroke="#60a5fa" stroke-width="1" opacity="0.5"/>
  <line x1="38" y1="22" x2="36" y2="38" stroke="#60a5fa" stroke-width="1" opacity="0.5"/>
</svg>
